<?xml version="1.0" encoding="UTF-8"?>
<svg id="Capa_2" data-name="Capa 2" xmlns="http://www.w3.org/2000/svg" viewBox="0 0 82 116.69">
  <defs>
    <style>
      .cls-1 {
        fill: #fff;
      }

      .cls-2 {
        fill: #4a8022;
      }

      .cls-3 {
        fill: #2c465d;
      }
    </style>
  </defs>
  <g>
    <path class="cls-2" d="m41,115.14c-1.61,0-3.11-.65-4.23-1.84C26.22,102.15,1.69,72.83,1.69,41.63,1.69,25.29,8.29,13.47,21.3,6.48c6.01-3.23,12.82-4.93,19.7-4.93s13.69,1.71,19.7,4.93c13.01,6.99,19.61,18.82,19.61,35.15,0,31.2-24.54,60.52-35.08,71.67-1.12,1.19-2.62,1.84-4.23,1.84Z"/>
    <path class="cls-3" d="m41,3.16c6.62,0,13.17,1.64,18.94,4.74,12.45,6.69,18.77,18.04,18.77,33.74,0,30.62-24.23,59.55-34.64,70.57-.81.86-1.9,1.34-3.06,1.34s-2.25-.47-3.06-1.34C27.52,101.18,3.29,72.26,3.29,41.63c0-15.7,6.31-27.05,18.77-33.74,5.77-3.1,12.32-4.74,18.94-4.74m0-3.22c-7.05,0-14.1,1.71-20.46,5.12C10.31,10.56.08,21.17.08,41.63c0,31.61,24.41,61.02,35.52,72.78,1.48,1.56,3.44,2.34,5.4,2.34s3.92-.78,5.4-2.34c11.11-11.75,35.52-41.17,35.52-72.78,0-20.46-10.23-31.07-20.46-36.57C55.1,1.65,48.05-.06,41-.06h0Z"/>
  </g>
  <g>
    <circle class="cls-2" cx="41" cy="42.97" r="31.71"/>
    <path class="cls-1" d="m41,13c16.53,0,29.98,13.45,29.98,29.98s-13.45,29.98-29.98,29.98-29.98-13.45-29.98-29.98,13.45-29.98,29.98-29.98m0-3.48C22.52,9.52,7.55,24.5,7.55,42.97s14.98,33.45,33.45,33.45,33.45-14.98,33.45-33.45S59.48,9.52,41,9.52h0Z"/>
  </g>
</svg>