<?xml version="1.0" encoding="utf-8"?>
<!-- Generator: Adobe Illustrator 27.1.1, SVG Export Plug-In . SVG Version: 6.00 Build 0)  -->
<svg version="1.1" id="Capa_1" xmlns="http://www.w3.org/2000/svg" xmlns:xlink="http://www.w3.org/1999/xlink" x="0px" y="0px"
	 viewBox="0 0 354 405" style="enable-background:new 0 0 354 405;" xml:space="preserve">
<style type="text/css">
	.st0{display:none;fill:#ED0000;stroke:#000000;stroke-miterlimit:10;}
</style>
<rect x="-34" y="-26" class="st0" width="434" height="475"/>
<g>
	<path d="M76.7,394.12c-3.07-1.88-4.04-4.59-4-8.17c0.15-14.84,0.06-29.69,0.06-44.53c0-1.35,0-2.7,0-4.4
		c-1.65-0.08-2.98-0.2-4.31-0.2c-8.86-0.02-17.71,0.05-26.57-0.02c-17.47-0.14-28.67-11.45-28.68-28.97
		c-0.02-62.25-0.02-124.5,0-186.75c0-17.82,11.37-29.15,29.31-29.17c41.04-0.03,82.08-0.01,123.12-0.01c1.61,0,3.23,0,5.11,0
		c0-9.11,0-18.02,0-27.08c-1.65-0.64-3.42-1.23-5.11-2c-11.66-5.32-18.09-18.32-15.19-30.67c3.03-12.92,14.33-21.63,27.57-21.25
		c12.51,0.36,23.38,9.7,25.76,22.13c2.43,12.7-4.48,25.67-16.65,30.16c-3.53,1.31-4.36,2.94-4.23,6.39
		c0.28,7.31,0.08,14.65,0.08,22.32c1.87,0,3.34,0,4.8,0c41.29,0,82.58-0.02,123.87,0.01c14.19,0.01,24.82,7.57,28.07,20.09
		c0.77,2.98,1.04,6.16,1.04,9.25c0.06,62.12,0.05,124.25,0.04,186.37c0,17.95-11.19,29.16-29.23,29.18
		c-42.66,0.04-85.33-0.02-127.99,0.1c-2.46,0.01-5.21,0.72-7.34,1.94c-31.98,18.35-63.89,36.83-95.81,55.29
		C79.19,394.12,77.94,394.12,76.7,394.12z M84.73,377.55c1.61-0.85,2.69-1.38,3.73-1.98c27.73-16,55.42-32.08,83.25-47.91
		c2.96-1.69,6.76-2.68,10.17-2.7c43.28-0.18,86.56-0.1,129.84-0.13c11.19-0.01,17.11-5.95,17.11-17.08
		c0.01-62.24,0.01-124.48,0-186.72c0-11.07-6.05-17.15-17.12-17.15c-89.8-0.02-179.61-0.02-269.41,0c-11.1,0-17.14,6.07-17.14,17.12
		c-0.01,62.24-0.01,124.48,0,186.72c0,11.11,5.94,17.06,17.08,17.11c11.47,0.04,22.95-0.01,34.42,0.02c6.1,0.02,8.04,1.98,8.05,8.12
		c0.03,13.35,0.01,26.69,0.01,40.04C84.73,374.33,84.73,375.66,84.73,377.55z M192.16,37.98c-0.06-8.48-6.85-15.19-15.29-15.12
		c-8.44,0.08-15.07,6.86-15.05,15.38c0.02,8.39,6.99,15.29,15.3,15.16C185.57,53.27,192.22,46.44,192.16,37.98z"/>
	<path d="M216.44,189.82c-0.1-17.93,14.37-32.54,32.43-32.73c17.82-0.19,32.74,14.48,32.89,32.34c0.16,18.1-14.52,33.07-32.49,33.13
		C231.16,222.61,216.55,208.04,216.44,189.82z M228.42,189.42c-0.23,11.42,8.81,20.86,20.25,21.17c11.23,0.3,20.87-9,21.12-20.37
		c0.25-11.31-8.94-20.87-20.33-21.14C238.13,168.8,228.64,177.97,228.42,189.42z"/>
	<path d="M137.55,189.96c-0.08,18-14.74,32.67-32.58,32.59c-18.09-0.08-32.75-14.82-32.74-32.91c0.01-17.98,15.05-32.79,33.04-32.56
		C123.3,157.32,137.63,171.92,137.55,189.96z M125.59,189.68c-0.04-11.37-9.53-20.77-20.8-20.61c-11.45,0.17-20.63,9.48-20.58,20.88
		c0.04,11.29,9.64,20.79,20.85,20.63C116.53,210.42,125.63,201.16,125.59,189.68z"/>
	<path d="M176.32,282.64c-14.8-0.15-29.06-4-42.28-11.64c-3.91-2.26-5.14-5.39-3.43-8.6c1.79-3.36,5.2-4.03,9.34-1.77
		c24.71,13.49,49.41,13.49,74.12-0.03c3.98-2.18,7.3-1.6,9.16,1.51c1.94,3.25,0.74,6.56-3.33,8.92
		C206.58,278.78,192.19,282.59,176.32,282.64z"/>
</g>
</svg>
