<?xml version="1.0" encoding="utf-8"?>
<!-- Generator: Adobe Illustrator 27.1.1, SVG Export Plug-In . SVG Version: 6.00 Build 0)  -->
<svg version="1.1" id="Capa_1" xmlns="http://www.w3.org/2000/svg" xmlns:xlink="http://www.w3.org/1999/xlink" x="0px" y="0px"
	 viewBox="0 0 309 323" style="enable-background:new 0 0 309 323;" xml:space="preserve">
<g>
	<path d="M12.79,189.15c0.67-2.95,1.19-5.93,2.02-8.83c6.84-23.9,29.11-39.36,54.06-37.6c23.82,1.68,43.67,20.32,47.36,44.27
		c1.62,10.51-1.22,20.09-5.42,29.45c-8.19,18.27-19.28,34.79-30.94,50.95c-3.56,4.93-7.27,9.76-11.02,14.55
		c-2.47,3.16-5.69,3.25-8.11,0.13c-15.73-20.27-30.76-41.04-41.45-64.51c-2.83-6.22-4.38-13.02-6.51-19.55
		C12.79,195.06,12.79,192.11,12.79,189.15z M64.74,272.06c4.15-5.71,8.06-10.94,11.8-16.29c9.57-13.68,18.72-27.64,25.57-42.93
		c2.83-6.32,5.5-12.77,5.11-19.89c-1.44-26.07-23.61-44.25-49.45-40.29c-26.33,4.03-42.26,32.55-32.54,55.28
		C35.17,231.16,49.68,251.4,64.74,272.06z"/>
	<path d="M263.02,19.75c2.12,0.54,4.27,1.02,6.37,1.64c15.87,4.75,26.95,19.61,26.83,36c-0.04,6.34-2.38,12.08-5.12,17.64
		c-7.56,15.32-17.86,28.79-28.73,41.85c-2.24,2.69-5.31,2.91-7.43,0.39c-11.9-14.13-22.85-28.87-30.81-45.72
		c-10.62-22.48,5.37-48.01,28.46-51.34c0.53-0.08,1.05-0.32,1.57-0.48C257.11,19.75,260.06,19.75,263.02,19.75z M258.45,106.91
		c2.78-3.62,5.47-6.99,8.02-10.46c6.92-9.44,13.54-19.05,18.17-29.91c3.28-7.7,2.56-15.11-1.23-22.33
		c-6.98-13.3-23.37-18.63-37.06-12.29c-11.45,5.3-20.83,20.57-13.55,36.06C239.43,82.09,248.69,94.43,258.45,106.91z"/>
	<path d="M196.99,166.14c-1.66,0-3.32,0.13-4.97-0.03c-2.77-0.26-4.43-2.14-4.4-4.72c0.03-2.59,1.7-4.43,4.54-4.57
		c3.21-0.16,6.45-0.16,9.66-0.01c2.91,0.13,4.75,2.13,4.71,4.74c-0.04,2.62-1.88,4.43-4.85,4.62c-1.56,0.1-3.13,0.02-4.69,0.02
		C196.99,166.17,196.99,166.16,196.99,166.14z"/>
	<path d="M254.88,156.84c1.75,0,3.52-0.15,5.25,0.04c2.61,0.28,4.16,2.18,4.12,4.69c-0.04,2.39-1.53,4.32-4.02,4.47
		c-3.58,0.22-7.19,0.23-10.77,0.02c-2.57-0.15-4.19-2.24-4.15-4.67c0.04-2.43,1.7-4.28,4.33-4.53c1.73-0.17,3.5-0.03,5.25-0.03
		C254.88,156.83,254.88,156.83,254.88,156.84z"/>
	<path d="M225.96,166.07c-1.84,0-3.7,0.17-5.52-0.04c-2.45-0.29-3.96-2.17-3.97-4.53c-0.01-2.37,1.48-4.4,3.92-4.56
		c3.67-0.23,7.37-0.23,11.04-0.01c2.45,0.15,3.95,2.14,3.97,4.52c0.01,2.38-1.47,4.28-3.92,4.58
		C229.66,166.24,227.8,166.07,225.96,166.07z"/>
	<path d="M272.43,262.65c-0.87,2.69-1.92,4.47-4.27,5.02c-2.3,0.55-4.25-0.24-5.31-2.44c-1.48-3.05-2.91-6.13-4.17-9.27
		c-0.89-2.2-0.29-4.24,1.71-5.6c2-1.36,4.49-1.41,5.74,0.51C268.54,254.59,270.36,258.7,272.43,262.65z"/>
	<path d="M270.21,282.25c-0.46,1.04-0.89,2.48-1.69,3.68c-1.62,2.45-3.29,4.9-5.23,7.09c-1.76,1.98-4.61,1.89-6.47,0.21
		c-1.82-1.65-2.07-4.1-0.62-6.25c1.74-2.59,3.48-5.18,5.24-7.76c1.3-1.91,3.18-2.54,5.32-1.93
		C268.96,277.92,269.95,279.64,270.21,282.25z"/>
	<path d="M151.77,293.78c1.65,0,3.31-0.08,4.96,0.02c2.7,0.17,4.48,2.05,4.51,4.6c0.03,2.55-1.72,4.61-4.37,4.73
		c-3.39,0.15-6.8,0.15-10.19,0c-2.65-0.12-4.41-2.19-4.38-4.73c0.03-2.54,1.83-4.43,4.52-4.6
		C148.46,293.7,150.11,293.78,151.77,293.78z"/>
	<path d="M160.14,206.41c-2.52,4.62-4.5,8.81-7.09,12.58c-0.6,0.87-3.45,0.81-4.95,0.29c-1.94-0.67-3.03-2.85-2.23-4.78
		c1.57-3.76,3.46-7.42,5.61-10.88c1.07-1.73,3.35-2.25,5.16-1.08C158.02,203.44,158.94,205.04,160.14,206.41z"/>
	<path d="M286.34,198.57c-4.1-0.05-6.34-3.8-4.6-6.9c1.64-2.94,3.35-5.85,5.22-8.64c1.24-1.85,3.15-2.48,5.33-1.69
		c2.29,0.83,3.49,2.62,3.05,4.93c-0.87,4.55-3.26,8.34-6.77,11.35C287.85,198.23,286.76,198.4,286.34,198.57z"/>
	<path d="M291.74,168.24c-0.88,1.12-1.66,3.02-2.97,3.51c-1.44,0.54-3.58,0.21-5.04-0.5c-2.51-1.22-4.7-3.08-7.1-4.56
		c-2.18-1.35-3.13-3.62-2.25-5.87c0.84-2.16,3.07-3.49,5.3-2.89c4.38,1.18,7.99,3.66,10.84,7.16
		C291.06,165.76,291.18,166.76,291.74,168.24z"/>
	<path d="M240.92,236.9c2.6,0.49,5.25,0.83,7.8,1.52c2.93,0.79,4.35,3.28,3.64,5.83c-0.72,2.57-3.14,3.78-6.1,3.23
		c-2.25-0.42-4.52-0.74-6.8-0.9c-3.9-0.27-5.98-2.01-5.82-5.08c0.16-2.93,2.3-4.47,6.12-4.4c0.37,0.01,0.73,0.03,1.1,0.05
		C240.89,237.06,240.9,236.98,240.92,236.9z"/>
	<path d="M172.92,147.24c0.83-2.78,1.44-5.66,2.56-8.33c1.08-2.57,3.59-3.36,5.96-2.37c2.44,1.01,3.27,3.42,2.6,6.16
		c-0.56,2.25-0.82,4.62-0.86,6.95c-0.05,2.59-1.55,4.81-3.97,5.18c-2.56,0.39-4.69-1.02-5.33-3.64c-0.3-1.24-0.4-2.53-0.6-3.8
		C173.16,147.34,173.04,147.29,172.92,147.24z"/>
	<path d="M122.92,303.18c-1.65,0-3.31,0.09-4.95-0.02c-2.81-0.19-4.6-2.2-4.51-4.88c0.09-2.56,1.87-4.39,4.61-4.48
		c3.21-0.1,6.42-0.1,9.63,0c2.82,0.09,4.71,2.09,4.69,4.72c-0.03,2.61-1.94,4.51-4.79,4.65
		C126.04,303.25,124.47,303.19,122.92,303.18z"/>
	<path d="M209.44,303.18c-1.65,0-3.31,0.1-4.95-0.02c-2.59-0.19-4.51-2.28-4.5-4.7c0.01-2.43,1.94-4.54,4.53-4.64
		c3.3-0.12,6.61-0.12,9.91-0.01c2.66,0.09,4.55,2.06,4.61,4.54c0.07,2.57-1.87,4.64-4.65,4.81
		C212.75,303.26,211.09,303.18,209.44,303.18z"/>
	<path d="M200.73,137.75c-1.74,0-3.5,0.12-5.23-0.03c-2.57-0.21-3.93-1.84-4.23-4.3c-0.27-2.24,1.28-4.59,3.64-4.77
		c3.91-0.29,7.87-0.29,11.78,0.03c2.32,0.19,3.89,2.63,3.57,4.82c-0.35,2.44-1.73,4.05-4.31,4.24
		C204.23,137.86,202.48,137.76,200.73,137.75z"/>
	<path d="M176.71,194.61c1.57,0,3.14-0.07,4.7,0.02c2.62,0.14,4.42,1.84,4.63,4.24c0.2,2.36-1.37,4.76-3.85,4.95
		c-3.75,0.28-7.56,0.29-11.31,0c-2.51-0.19-3.96-2.5-3.76-4.98c0.19-2.35,1.85-4.03,4.34-4.19c1.75-0.11,3.5-0.02,5.26-0.02
		C176.71,194.62,176.71,194.62,176.71,194.61z"/>
	<path d="M205.49,194.62c1.65,0,3.31-0.08,4.96,0.02c2.6,0.16,4.32,1.91,4.45,4.34c0.13,2.43-1.4,4.68-3.89,4.86
		c-3.65,0.27-7.34,0.28-11,0.04c-2.63-0.17-4.22-2.46-4.03-5.02c0.18-2.43,1.91-4.09,4.56-4.23
		C202.18,194.54,203.83,194.61,205.49,194.62z"/>
	<path d="M234.38,194.61c1.57,0,3.14-0.06,4.7,0.01c2.8,0.14,4.57,1.88,4.66,4.46c0.09,2.57-1.59,4.69-4.29,4.85
		c-3.49,0.2-7.02,0.21-10.5-0.03c-2.64-0.18-4.32-2.49-4.13-5c0.18-2.43,1.95-4.13,4.58-4.27
		C231.05,194.54,232.72,194.61,234.38,194.61z"/>
	<path d="M229.45,137.76c-1.66,0-3.33,0.1-4.98-0.02c-2.47-0.19-4.12-1.92-4.27-4.27c-0.16-2.38,1.2-4.62,3.6-4.82
		c3.84-0.31,7.73-0.31,11.58-0.04c2.38,0.17,3.89,2.46,3.79,4.72c-0.11,2.41-1.9,4.19-4.46,4.44c-0.18,0.02-0.37,0.03-0.55,0.03
		c-1.57,0-3.14,0-4.7,0C229.45,137.78,229.45,137.77,229.45,137.76z"/>
	<path d="M239.09,293.8c1.15-0.06,2.63-0.22,4.1-0.2c2.55,0.04,4.43,1.76,4.7,4.19c0.24,2.22-1.18,4.63-3.54,4.88
		c-3.92,0.4-7.9,0.51-11.83,0.3c-2.27-0.12-3.88-2.64-3.59-4.86c0.33-2.48,1.77-4.06,4.32-4.28
		C235.06,293.67,236.92,293.8,239.09,293.8z"/>
	<path d="M263.01,204.02c-1.48,0-2.96,0.07-4.43-0.02c-2.99-0.18-5.02-2.24-4.94-4.89c0.09-2.6,2.03-4.43,4.96-4.5
		c3.04-0.07,6.09-0.07,9.13,0c2.95,0.07,4.83,1.88,4.89,4.53c0.06,2.66-1.75,4.62-4.64,4.84c-1.65,0.12-3.32,0.02-4.98,0.02
		C263.01,204.01,263.01,204.02,263.01,204.02z"/>
	<path d="M153.97,228.26c1.6,0.96,2.88,1.58,3.99,2.42c1.89,1.43,3.58,3.12,5.52,4.49c2.58,1.82,3.48,4.19,2.2,6.57
		c-1.32,2.46-4.23,3.4-6.85,1.6c-2.99-2.05-5.82-4.45-8.24-7.13c-0.87-0.96-0.87-3.38-0.33-4.77
		C150.75,230.19,152.53,229.43,153.97,228.26z"/>
	<path d="M214.09,246.42c-1.75,0-3.52,0.17-5.24-0.04c-2.6-0.32-4.12-2.26-4.05-4.75c0.07-2.47,1.71-4.32,4.36-4.44
		c3.4-0.16,6.82-0.16,10.22,0.01c2.62,0.13,4.29,2.04,4.34,4.48c0.05,2.44-1.53,4.41-4.12,4.72
		C217.79,246.6,215.93,246.43,214.09,246.42z"/>
	<path d="M180.46,303.18c-1.56,0-3.12,0.08-4.68-0.02c-2.77-0.18-4.71-2.24-4.65-4.81c0.06-2.48,1.95-4.46,4.6-4.55
		c3.3-0.11,6.61-0.12,9.91,0.01c2.68,0.1,4.46,2.08,4.47,4.63c0.01,2.55-1.75,4.5-4.42,4.7c-1.73,0.13-3.48,0.02-5.23,0.02
		C180.46,303.18,180.46,303.18,180.46,303.18z"/>
	<path d="M185.3,237.12c1.66,0,3.33-0.1,4.98,0.02c2.76,0.2,4.57,2.06,4.6,4.57c0.04,2.39-1.62,4.51-4.19,4.67
		c-3.58,0.22-7.19,0.22-10.77-0.03c-2.57-0.18-4.11-2.3-4.02-4.77c0.09-2.43,1.8-4.22,4.42-4.42c1.65-0.13,3.32-0.02,4.98-0.02
		C185.3,237.13,185.3,237.13,185.3,237.12z"/>
	<path d="M94.19,293.79c1.65,0,3.31-0.1,4.95,0.02c2.49,0.18,4.3,2.11,4.4,4.48c0.1,2.45-1.74,4.7-4.31,4.83
		c-3.48,0.17-6.98,0.17-10.46-0.01c-2.62-0.14-4.32-2.32-4.2-4.88c0.11-2.44,1.83-4.25,4.4-4.42
		C90.7,293.7,92.45,293.79,94.19,293.79z"/>
	<path d="M67.25,293.77c4.67,0,7,1.6,6.94,4.77c-0.05,3.09-2.34,4.65-6.8,4.65c-5.01,0-7.3-1.45-7.36-4.66
		C59.97,295.31,62.31,293.77,67.25,293.77z"/>
	<path d="M255.91,137.76c-0.83,0-1.66,0.06-2.48-0.01c-2.49-0.23-4.14-1.85-4.33-4.18c-0.2-2.49,1.22-4.62,3.72-5
		c1.98-0.3,4.04-0.29,6.04-0.1c2.69,0.26,4.33,2.33,4.22,4.89c-0.11,2.56-1.88,4.24-4.69,4.42c-0.82,0.05-1.65,0.01-2.48,0.01
		C255.91,137.78,255.91,137.77,255.91,137.76z"/>
	<path d="M64.74,208.65c-10.48-0.01-18.8-8.31-18.82-18.78c-0.02-10.54,8.47-19.02,18.98-18.95c10.34,0.07,18.77,8.61,18.74,18.98
		C83.61,200.3,75.18,208.65,64.74,208.65z M64.63,199.2c5.29,0.05,9.54-4.1,9.58-9.33c0.03-5.18-4.29-9.53-9.47-9.52
		c-5.1,0.01-9.3,4.16-9.38,9.27C55.28,194.96,59.33,199.15,64.63,199.2z"/>
	<path d="M272.54,52.73c0.03,7.86-6.07,14.1-13.89,14.19c-7.93,0.09-14.36-6.17-14.4-14.03c-0.04-7.8,6.44-14.29,14.24-14.26
		C266.24,38.66,272.51,44.95,272.54,52.73z M263.08,52.9c0.04-2.63-2.05-4.8-4.63-4.82c-2.54-0.01-4.77,2.23-4.74,4.77
		c0.03,2.48,2.06,4.53,4.57,4.61C260.97,57.55,263.04,55.58,263.08,52.9z"/>
</g>
</svg>
