<?xml version="1.0" encoding="utf-8"?>
<!-- Generator: Adobe Illustrator 27.1.1, SVG Export Plug-In . SVG Version: 6.00 Build 0)  -->
<svg version="1.1" id="Capa_1" xmlns="http://www.w3.org/2000/svg" xmlns:xlink="http://www.w3.org/1999/xlink" x="0px" y="0px"
	 viewBox="0 0 391 401" style="enable-background:new 0 0 391 401;" xml:space="preserve">
<g>
	<path d="M312.02,344.82c4.87,0,8.83-0.02,12.79,0.01c4.25,0.03,6.76,2.15,6.87,5.73c0.11,3.75-2.41,6.13-6.8,6.22
		c-10.23,0.22-20.45,0.42-30.68,0.52c-5.93,0.06-8.28-3.02-6.94-8.92c2.18-9.59,4.37-19.19,6.61-28.77
		c1.22-5.22,3.91-7.31,7.86-6.26c3.53,0.94,4.82,3.95,3.74,8.78c-1.05,4.72-2.11,9.44-3.4,15.22c3.33-2.78,5.95-4.81,8.4-7.04
		c39.89-36.42,59.69-81.76,58.29-135.66C366.65,113.36,306.41,44,226.58,29.57c-24.94-4.51-49.62-3.59-74.15,2.55
		c-0.97,0.24-1.93,0.54-2.91,0.66c-3.66,0.42-6.29-1.36-6.99-4.65c-0.64-3.01,1-5.93,4.39-6.8c6.27-1.59,12.56-3.32,18.96-4.17
		c70.83-9.41,130.14,12.62,174.91,68.29c62.58,77.83,51,190.6-24.67,255.82C314.98,342.25,313.86,343.22,312.02,344.82z"/>
	<path d="M78.11,55.93c-4.37,0-8.33,0.03-12.3-0.01c-4.25-0.04-6.74-2.18-6.84-5.76c-0.1-3.75,2.43-6.09,6.84-6.18
		c10.23-0.21,20.45-0.41,30.68-0.51c5.75-0.06,8.21,3.05,6.95,8.62c-2.26,9.96-4.53,19.92-6.86,29.86
		c-1.03,4.38-3.69,6.31-7.37,5.53c-3.57-0.76-5.18-3.86-4.22-8.18c1.1-4.95,2.22-9.9,2.68-15.33c-4.09,3.6-8.37,6.99-12.23,10.82
		c-40.49,40.2-59.36,88.79-52.19,145.48c8.52,67.38,45.33,114.83,107.94,141.25c34.59,14.6,70.61,16.2,107.06,7.1
		c1.09-0.27,2.18-0.6,3.28-0.69c3.43-0.29,6.06,1.54,6.57,4.72c0.52,3.27-0.87,5.84-4.05,6.65c-6.51,1.67-13.05,3.35-19.69,4.34
		c-51.9,7.72-99.16-4.02-141.09-35.41c-37.13-27.8-60.92-64.96-69.54-110.42c-13.58-71.64,8.25-131.75,62.8-180.05
		c0.37-0.33,0.74-0.67,1.09-1.01C77.72,56.68,77.76,56.55,78.11,55.93z"/>
	<path d="M262.3,195.55c0-25.19-0.01-50.37,0-75.56c0-7.23,1.54-8.75,8.8-8.75c9.23,0,18.45-0.02,27.68,0.01
		c5.28,0.01,7.37,1.99,7.37,7.11c0.02,51.49,0.02,102.98,0,154.48c0,5.16-2.07,7.31-7.24,7.35c-9.6,0.08-19.2,0.06-28.8,0.01
		c-5.82-0.03-7.79-2.04-7.8-7.98C262.29,246.67,262.3,221.11,262.3,195.55z M274.53,123.34c0,48.45,0,96.49,0,144.6
		c6.67,0,13.05,0,19.43,0c0-48.35,0-96.4,0-144.6C287.41,123.34,281.1,123.34,274.53,123.34z"/>
	<path d="M246.94,211.25c0,20.2,0.01,40.39,0,60.59c0,6.39-1.9,8.35-8.18,8.37c-9.23,0.03-18.45,0.04-27.68,0
		c-6.1-0.02-8.12-2.03-8.12-8.08c-0.01-40.89-0.01-81.78,0-122.67c0-6.13,2-8.13,8.02-8.15c9.47-0.02,18.95-0.03,28.42,0.01
		c5.35,0.02,7.51,2.15,7.52,7.48C246.96,169.61,246.94,190.43,246.94,211.25z M215.13,268c6.62,0,13.04,0,19.59,0
		c0-38.27,0-76.35,0-114.46c-6.66,0-13.07,0-19.59,0C215.13,191.79,215.13,229.77,215.13,268z"/>
	<path d="M265.58,72.55c-2.55,0-4.26,0.04-5.97-0.01c-3.36-0.11-5.44-1.91-5.83-5.17c-0.4-3.28,1.21-6.01,4.46-6.31
		c8.43-0.76,16.91-1.25,25.37-1.31c3.26-0.02,5.12,2.8,4.74,6.05c-0.92,7.92-2.06,15.82-3.36,23.68c-0.53,3.2-3.69,5.06-6.74,4.55
		c-3.02-0.51-5.17-3.24-4.95-6.5c0.12-1.84,0.47-3.66,0.85-6.42c-1.97,1.64-3.29,2.71-4.58,3.8
		c-52.02,44.15-110.83,76.32-175.02,98.95c-4.34,1.53-7.77,0.27-8.98-3.23c-1.2-3.47,0.63-6.47,5.12-8.06
		c35.67-12.64,69.93-28.3,102.44-47.72C218.54,109.67,242.52,92.49,265.58,72.55z"/>
	<path d="M143.71,227.37c0-14.83-0.01-29.66,0-44.5c0.01-6.09,1.93-7.99,8.07-8c9.47-0.01,18.95-0.03,28.42,0.01
		c5.36,0.02,7.48,2.09,7.48,7.49c0.03,30.04,0.03,60.08,0,90.12c0,5.57-2.12,7.68-7.73,7.72c-9.6,0.06-19.2,0.07-28.79,0
		c-5.36-0.04-7.44-2.21-7.45-7.58C143.69,257.53,143.71,242.45,143.71,227.37z M155.95,186.97c0,27.25,0,54.1,0,80.98
		c6.69,0,13.1,0,19.51,0c0-27.16,0-54.01,0-80.98C168.84,186.97,162.51,186.97,155.95,186.97z"/>
	<path d="M195.11,302.36c-34.54,0-69.08,0-103.62,0c-1.37,0-2.77,0.08-4.1-0.14c-3.07-0.51-4.87-2.41-5.17-5.52
		c-0.3-3.1,1.07-5.4,3.98-6.44c1.48-0.53,3.18-0.59,4.78-0.59c69.58-0.03,139.15-0.03,208.73,0c1.48,0,3.03,0.05,4.42,0.49
		c3.13,0.99,4.62,3.32,4.28,6.59c-0.34,3.28-2.3,5.16-5.57,5.53c-1.36,0.15-2.74,0.09-4.11,0.09
		C264.19,302.36,229.65,302.36,195.11,302.36z"/>
	<path d="M128.34,243.77c0,9.47,0.03,18.95-0.01,28.42c-0.03,6.07-1.99,7.99-8.15,8.01c-9.23,0.03-18.45,0.04-27.68,0
		c-6.13-0.02-8.02-1.94-8.02-8.09c-0.01-19.07-0.01-38.15,0-57.22c0-6,1.84-7.89,7.72-7.91c9.6-0.03,19.2-0.04,28.8,0.01
		c5.22,0.03,7.27,2.02,7.31,7.23C128.38,224.08,128.33,233.93,128.34,243.77z M96.74,219.15c0,16.4,0,32.61,0,48.86
		c6.59,0,12.88,0,19.31,0c0-16.43,0-32.62,0-48.86C109.43,219.15,103.13,219.15,96.74,219.15z"/>
</g>
</svg>
