<?xml version="1.0" encoding="utf-8"?>
<!-- Generator: Adobe Illustrator 27.1.1, SVG Export Plug-In . SVG Version: 6.00 Build 0)  -->
<svg version="1.1" id="Capa_1" xmlns="http://www.w3.org/2000/svg" xmlns:xlink="http://www.w3.org/1999/xlink" x="0px" y="0px"
	 viewBox="0 0 416 411" style="enable-background:new 0 0 416 411;" xml:space="preserve">
<g>
	<path d="M16.38,193.55c0.94-6.9,1.63-13.83,2.84-20.68C32.47,98.02,86.39,39.43,160.09,19.97c23.02-6.08,46.45-7.6,70.11-4.71
		c5.15,0.63,8.16,3.92,7.68,8.25c-0.5,4.53-4.39,7.17-9.59,6.54C150.18,20.5,72.89,66.52,44.1,139.73
		c-27.28,69.35-10.12,145.41,44.66,195.92c27.65,25.5,60.39,40.6,97.81,45.13c88.16,10.66,170.02-44.69,192.33-131.06
		c13.5-52.27,4.07-101.07-26.36-145.73c-0.56-0.82-1.16-1.62-1.78-2.41c-0.13-0.17-0.41-0.21-1.2-0.59c0,2.54,0.08,4.83-0.02,7.12
		c-0.19,4.34-3.23,7.45-7.25,7.53c-3.8,0.08-7.41-2.83-7.52-6.88c-0.25-9.85-0.25-19.71-0.01-29.56c0.1-4.12,3.28-6.83,7.47-6.88
		c9.48-0.11,18.96-0.12,28.44,0.02c4.36,0.06,7.3,3.28,7.3,7.41c0,4.11-2.94,7.16-7.31,7.45c-1.86,0.12-3.74,0.04-5.61,0.04
		c-1.82,0-3.64,0-6.18,0c1.92,2.63,3.47,4.68,4.94,6.77c27.61,39.19,39.35,82.75,34.89,130.4c-7.78,83.01-70.39,152.47-151.78,168.8
		c-7.8,1.57-15.79,2.21-23.68,3.3c-1.09,0.15-2.17,0.43-3.25,0.65c-7.98,0-15.97,0-23.95,0c-0.83-0.2-1.66-0.48-2.5-0.6
		c-8.74-1.28-17.57-2.12-26.22-3.85C93.02,377.84,31.48,313.97,19.38,239.3c-1.17-7.24-2.01-14.53-3-21.79
		C16.38,209.52,16.38,201.54,16.38,193.55z"/>
	<path d="M207.9,77.19c-23.11,0.33-44.57,6.31-64.49,17.92c-1.4,0.82-2.74,1.76-4.2,2.44c-3.71,1.73-7.77,0.47-9.73-2.92
		c-2.03-3.51-1.15-7.95,2.65-10.08c6.83-3.84,13.68-7.77,20.89-10.77c81.18-33.79,172.73,12.56,193.72,97.93
		c19.58,79.62-32.72,160.17-113.23,174.38c-77.83,13.74-151.71-37.11-165.96-114.6c-6.6-35.91-0.03-69.64,18.84-100.92
		c2.82-4.67,7.07-6.06,10.95-3.72c3.94,2.38,4.73,6.7,1.85,11.41c-7.28,11.89-12.45,24.62-15.65,38.2
		c-16.55,70.34,29.06,140.87,100.08,154.65c69.35,13.45,136.83-32.16,149.99-101.4c13.77-72.43-36.43-141.93-109.32-151.24
		C218.86,77.75,213.36,77.59,207.9,77.19z"/>
	<path d="M182.2,204.03c0.45-1.91,0.82-5.06,1.96-7.9c0.92-2.3,0.42-3.56-1.2-5.15c-7.57-7.42-15.04-14.95-22.53-22.45
		c-2.64-2.65-3.55-5.73-1.79-9.19c1.6-3.12,4.4-4.62,7.75-3.83c1.92,0.45,3.84,1.78,5.29,3.19c7.33,7.13,14.56,14.37,21.7,21.69
		c1.71,1.75,3.07,2.19,5.47,1.19c5.86-2.44,11.99-2.54,17.86-0.13c2.83,1.16,4.39,0.48,6.38-1.53
		c15.27-15.42,30.65-30.74,45.99-46.08c5.03-5.03,9.38-5.72,12.88-2.04c3.39,3.57,2.66,7.7-2.26,12.63
		c-15.26,15.26-30.48,30.55-45.83,45.71c-2.22,2.19-2.78,3.83-1.71,7c3.51,10.39,1.19,19.7-6.81,27.32
		c-7.35,7-18.64,8.86-27.84,4.52C187.56,224.29,182.59,216.22,182.2,204.03z M208.14,194.83c-6.02-0.07-10.73,4.49-10.84,10.47
		c-0.11,5.99,4.44,10.79,10.38,10.95c6.1,0.17,11.02-4.59,11.05-10.69C218.76,199.59,214.14,194.9,208.14,194.83z"/>
	<path d="M309.95,213.05c-1.61,0-3.23,0.07-4.84-0.01c-4.15-0.22-7.09-3.1-7.27-7.03c-0.17-3.72,2.38-7.27,6.19-7.64
		c3.93-0.38,7.96-0.39,11.88,0.06c3.86,0.44,6.19,3.93,5.94,7.78c-0.25,3.79-3.08,6.57-7.05,6.82
		C313.18,213.13,311.56,213.05,309.95,213.05z"/>
	<path d="M200.48,307.18c0-1.49-0.07-2.98,0.01-4.47c0.22-4.17,3.04-7.12,6.95-7.34c3.89-0.22,7.4,2.43,7.78,6.47
		c0.35,3.69,0.36,7.46-0.01,11.15c-0.4,4.06-3.84,6.61-7.82,6.39c-3.93-0.22-6.7-3.13-6.91-7.35
		C200.41,310.41,200.47,308.79,200.48,307.18z"/>
	<path d="M215.52,103.79c0,1.61,0.09,3.23-0.02,4.84c-0.27,3.96-3.08,6.8-6.85,7.06c-3.88,0.27-7.45-2.37-7.85-6.38
		c-0.37-3.69-0.36-7.46-0.03-11.15c0.37-4.06,3.77-6.65,7.75-6.47c3.95,0.18,6.77,3.06,7,7.26c0.09,1.61,0.01,3.23,0.01,4.84
		C215.53,103.79,215.53,103.79,215.52,103.79z"/>
	<path d="M106.17,198.01c1.61,0,3.23-0.08,4.84,0.02c4.11,0.24,7.04,3.2,7.17,7.12c0.13,3.89-2.61,7.29-6.66,7.63
		c-3.57,0.3-7.21,0.3-10.79-0.01c-4.07-0.35-6.71-3.7-6.58-7.66c0.13-3.95,3.03-6.85,7.17-7.09
		C102.94,197.93,104.56,198.01,106.17,198.01z"/>
	<path d="M267.21,28.86c-0.04,4.08-3.35,7.4-7.37,7.4c-3.95,0-7.43-3.43-7.5-7.38c-0.07-4.13,3.47-7.61,7.66-7.52
		C264.11,21.45,267.25,24.71,267.21,28.86z"/>
	<path d="M112.35,117.21c-4.03,0.05-7.45-3.23-7.56-7.24c-0.11-4.09,3.48-7.72,7.58-7.65c4.02,0.07,7.33,3.45,7.32,7.48
		C119.68,113.87,116.42,117.16,112.35,117.21z"/>
</g>
</svg>
